<svg xmlns="http://www.w3.org/2000/svg" width="1024" height="1024" viewBox="0 0 1024 1024" fill="none">
  <path transform="translate(512 512) scale(4.05) translate(-128.6 -127.4)" fill="#FFFFFF" d="M94.74 132.75L94.74 132.75C97.36 135.38 97.36 139.63 94.74 142.26L78.11 158.89C75.48 161.51 71.23 161.51 68.60 158.89L68.60 158.89C65.98 156.26 65.98 152.01 68.60 149.38L85.23 132.75C87.86 130.13 92.11 130.13 94.74 132.75ZM104.24 151.76L104.24 151.76C106.87 154.38 106.87 158.64 104.24 161.26L87.61 177.89C84.99 180.52 80.73 180.52 78.11 177.89L78.11 177.89C75.48 175.27 75.48 171.01 78.11 168.39L94.74 151.76C97.36 149.13 101.62 149.13 104.24 151.76ZM123.25 161.26L123.25 161.26C125.87 163.89 125.87 168.14 123.25 170.77L106.62 187.40C103.99 190.02 99.74 190.02 97.11 187.40L97.11 187.40C94.49 184.77 94.49 180.52 97.11 177.89L113.74 161.26C116.37 158.64 120.62 158.64 123.25 161.26ZM63.85 163.64C66.48 166.26 66.48 170.52 63.85 173.14C61.23 175.77 56.97 175.77 54.35 173.14C51.72 170.52 51.72 166.26 54.35 163.64C56.97 161.01 61.23 161.01 63.85 163.64ZM73.35 182.65C75.98 185.27 75.98 189.52 73.35 192.15C70.73 194.77 66.48 194.77 63.85 192.15C61.23 189.52 61.23 185.27 63.85 182.65C66.48 180.02 70.73 180.02 73.35 182.65ZM92.36 192.15C94.99 194.77 94.99 199.03 92.36 201.65C89.74 204.28 85.48 204.28 82.86 201.65C80.23 199.03 80.23 194.77 82.86 192.15C85.48 189.52 89.74 189.52 92.36 192.15Z"/>
</svg>
